<svg width="1003" height="1003" viewBox="0 0 1003 1003" fill="none" xmlns="http://www.w3.org/2000/svg">
<g filter="url(#filter0_d_49_2)">
<path d="M870.707 497.696C899.803 495.481 921.197 513.231 923.462 542.988C925.464 569.289 903.098 593.845 878.17 595.742L608.543 616.265C571.873 619.056 558.003 600.068 555.788 570.973C554.734 557.124 568.496 533.223 576.568 520.084L750.273 211.02L578.692 224.08C551.043 226.184 528.096 207.148 525.937 178.788C523.935 152.487 544.977 128.032 571.229 126.033L840.856 105.511C881.031 102.453 891.768 126.585 893.611 150.803C894.77 166.024 880.882 189.245 872.831 201.691L699.126 510.756L870.707 497.696Z" fill="#4289C1"/>
<path d="M487.851 650.105C503.366 648.924 513.021 656.892 514.228 672.751C515.297 686.796 504.867 698.117 491.582 699.128L344.513 710.322C324.952 711.811 319.316 703.192 318.135 687.676C317.574 680.298 325.036 669.178 329.334 662.17L427.633 506.767L329.587 514.229C314.831 515.353 304.359 506.683 303.21 491.584C302.141 477.538 311.835 466.273 325.856 465.206L472.925 454.012C494.348 452.382 498.319 463.74 499.302 476.658C499.92 484.771 492.654 498.785 488.352 505.424L389.804 657.568L487.851 650.105Z" fill="#4289C1"/>
<path d="M280.306 838.477C295.822 837.296 305.476 845.264 306.683 861.123C307.753 875.168 297.323 886.489 284.038 887.5L136.968 898.694C117.408 900.183 111.772 891.564 110.591 876.048C110.029 868.67 117.491 857.551 121.79 850.542L220.089 695.139L122.043 702.602C107.287 703.725 96.8146 695.055 95.6653 679.956C94.5982 665.935 104.291 654.646 118.311 653.579L265.381 642.384C286.804 640.754 290.775 652.113 291.758 665.03C292.376 673.144 285.109 687.158 280.807 693.796L182.26 845.94L280.306 838.477Z" fill="#4289C1"/>
</g>
<defs>
<filter id="filter0_d_49_2" x="95.5852" y="105.248" width="848.002" height="838.612" filterUnits="userSpaceOnUse" color-interpolation-filters="sRGB">
<feFlood flood-opacity="0" result="BackgroundImageFix"/>
<feColorMatrix in="SourceAlpha" type="matrix" values="0 0 0 0 0 0 0 0 0 0 0 0 0 0 0 0 0 0 127 0" result="hardAlpha"/>
<feOffset dx="10" dy="35"/>
<feGaussianBlur stdDeviation="5"/>
<feComposite in2="hardAlpha" operator="out"/>
<feColorMatrix type="matrix" values="0 0 0 0 0 0 0 0 0 0 0 0 0 0 0 0 0 0 0.25 0"/>
<feBlend mode="normal" in2="BackgroundImageFix" result="effect1_dropShadow_49_2"/>
<feBlend mode="normal" in="SourceGraphic" in2="effect1_dropShadow_49_2" result="shape"/>
</filter>
</defs>
</svg>
